PathFileType	4	(X/Y/Z)	36_2_10_p0_0-454_filt_butterworth.trc
DataRate	CameraRate	NumFrames	NumMarkers	Units	OrigDataRate	OrigDataStartFrame	OrigNumFrames
47.0	47.0	7	27	m	47.0	56	454
Frame#	Time	RHip			RKnee			RAnkle			RBigToe			RSmallToe			RHeel			LHip			LKnee			LAnkle			LBigToe			LSmallToe			LHeel			Neck			Head			Nose			RShoulder			RElbow			RWrist			RThumb			RIndex			RPinky			LShoulder			LElbow			LWrist			LThumb			LIndex			LPinky			
		X1	Y1	Z1	X2	Y2	Z2	X3	Y3	Z3	X4	Y4	Z4	X5	Y5	Z5	X6	Y6	Z6	X7	Y7	Z7	X8	Y8	Z8	X9	Y9	Z9	X10	Y10	Z10	X11	Y11	Z11	X12	Y12	Z12	X13	Y13	Z13	X14	Y14	Z14	X15	Y15	Z15	X16	Y16	Z16	X17	Y17	Z17	X18	Y18	Z18	X19	Y19	Z19	X20	Y20	Z20	X21	Y21	Z21	X22	Y22	Z22	X23	Y23	Z23	X24	Y24	Z24	X25	Y25	Z25	X26	Y26	Z26	X27	Y27	Z27	
56	1.1914893617021276	0.3051931390370363	0.551274385308608	-0.10401532764126564	0.34969706985800203	0.6398362671183542	0.3280976768732666	0.37560433330652215	0.724941358802402	0.7153985893897634	0.34515262915585193	0.5681557742657019	0.7661885570841342	0.4086025372262785	0.5773091131440584	0.7592754699884762	0.353770160130778	0.8114149860402176	0.7709889555450367	0.10375408960926559	0.565433319248391	-0.085163265894586	0.12770772804252553	0.6548882285261215	0.37121765162798237	0.15900095404298548	0.7021011976118361	0.7404795941594811	0.19083613826769183	0.5241597878195439	0.7546083252773603	0.12918480837763396	0.5779877369434747	0.7740729426718377	0.17294421062733173	0.7496302970236753	0.7854640040840312	0.1747912311365208	0.5197252935645198	-0.5789588061489412	0.1620386203670081	0.4320400120726555	-0.8277398315975001	0.16692520056769689	0.3727277787328383	-0.6837919005268579	0.32055453600952166	0.5075698677769732	-0.5068461262323478	0.38532438865887975	0.5586998623623158	-0.2397778510700435	0.418326370313135	0.4747684891547771	-0.006057571650841005	0.3677149163067039	0.482920571435704	0.10168990175118042	0.3895495202666149	0.5097027419735791	0.12505399362089253	0.4220058339190458	0.5324054637064641	0.11203442747151106	0.018845331652636785	0.4864739283230005	-0.4871732512932465	0.012407846678442863	0.49731752184429434	-0.23015494143561022	0.047434864158387956	0.49313280072368987	0.019987070051591817	0.10028889039241495	0.4551618020797571	0.11217010639088847	0.07673001409502692	0.4936642472301047	0.16060153057749116	0.03337052609945507	0.500377382205197	0.1347519480910701
57	1.2127659574468086	0.30518810834507054	0.5513202682101556	-0.10420750240896672	0.34979153765370397	0.6399045894309736	0.3282845797147929	0.3756714273952777	0.7248067532139516	0.715491274179059	0.3450044187861739	0.5678739381588739	0.7639970740088551	0.40865766973096634	0.5669137885441841	0.7572058552482556	0.3537243264339521	0.8117054058688395	0.7724309801915853	0.10429211942770608	0.5659187984781695	-0.08540941928016535	0.12750161281933153	0.6549754011771743	0.37104500768606546	0.15938923357626616	0.6966661214745455	0.7398707524180801	0.19073145208391729	0.515946714045182	0.7510793860308198	0.12916149679845698	0.5773032973653924	0.7747059775196163	0.17254090424962473	0.7499452723023525	0.7876993114458576	0.17476120696623118	0.5197061858230145	-0.5789497277274585	0.16190954031101318	0.43307564894118344	-0.8275987618943764	0.16688945456452922	0.3727601161647448	-0.683774689529801	0.32056670568014567	0.507565726687881	-0.5068510757500949	0.38533239828438925	0.5587699984453629	-0.2397841596231356	0.4182449658652754	0.4749051707029929	-0.0060297250676497795	0.3676996650653055	0.4830771447762089	0.10170755716302647	0.3896153901709992	0.5112277513350185	0.1263661203421149	0.42185087269033117	0.5326981856972655	0.11212146155264437	0.01962103973634452	0.48990849501657874	-0.4870551862709154	0.013663514782407953	0.4977090407781883	-0.23024432711492296	0.049900167957831844	0.49751835010800044	0.019171466545963693	0.10002108514869847	0.45631152266600344	0.11045527391589824	0.07603804588757333	0.4946166330449425	0.16073193067265742	0.03318706621956014	0.5002156343507214	0.13207265711856972
58	1.2340425531914894	0.30505406092184945	0.5514965337974864	-0.10536907354124328	0.3502143681864736	0.640421184086941	0.3285482875109432	0.37584309507782265	0.7246619364012793	0.7155287132401982	0.3438622835797712	0.5645253699164725	0.7623423364976536	0.4087403029567742	0.5618506499164373	0.7534978503852063	0.35391703522589946	0.8116415821015917	0.773104146004949	0.10549326933338171	0.5665683284797837	-0.08542433400422486	0.12745312632518843	0.6554699459350954	0.37114477527603223	0.15914668510602772	0.6964523688407775	0.7392765149974344	0.18938192820631145	0.5185238546247171	0.7510038188495309	0.12935893550441593	0.5763943502997151	0.7743572681924797	0.17260403412372466	0.7502425684684817	0.7879907865059552	0.17476366760991444	0.5197245733348572	-0.578948579921023	0.16094755749342027	0.43665351124590335	-0.8267187852748622	0.16683666501854902	0.37275831627123496	-0.6837605388118477	0.3205832626704845	0.5075747885009141	-0.5068484810443399	0.3853401150385757	0.558886138628775	-0.23977258130067108	0.41817973223620136	0.4749825870017617	-0.006029901880708452	0.3676731969680048	0.48316396226032315	0.10168040366283242	0.38973550279364777	0.5114376265293331	0.12682440889222743	0.42174792850298737	0.5331686777039023	0.11222518158699935	0.020519194105242958	0.49519610264151537	-0.48690917960579555	0.015488285478779703	0.4983501391371828	-0.2303971445208002	0.0509076559687188	0.4988216238245232	0.01809085099819896	0.10049107693003101	0.4604017626864693	0.11010138699601116	0.0761657598694683	0.49854646231240257	0.16107409180559534	0.03353570242615815	0.5018652070267454	0.13325272867315424
59	1.25531914893617	0.304795245661886	0.5517635660954026	-0.10706245701724444	0.35061880228830566	0.6411690438974187	0.32841610807186516	0.37564175738518285	0.7244025811142122	0.7154263742475976	0.34214707559155977	0.5590396354480822	0.7616281678245428	0.40908101407200764	0.5612572966644733	0.7512169674403871	0.3543463589116874	0.8115945794919446	0.7729953744072862	0.10618510608568366	0.5670016730527255	-0.08544463517184436	0.12817034369354388	0.6562298666521128	0.3716124430187837	0.15771550825179076	0.7016856954004719	0.7397861992011132	0.1882533717337735	0.5235357694743525	0.7523145851532712	0.12956097524468907	0.5756365993673215	0.7737334919014482	0.17282732431736347	0.7507676227323544	0.7875908541638281	0.17491137782958216	0.5197934945456003	-0.5789626893977531	0.15941327986534445	0.4416656286897153	-0.8254250668513899	0.1667330799129814	0.3727383893013839	-0.6837411559576525	0.3205951419406166	0.5075963812435129	-0.5068454196298624	0.385330467707514	0.5589888181426268	-0.23971100089957065	0.41729065775619234	0.47872197987172865	-0.005049499076937922	0.3676419765813622	0.4831170524250919	0.10164152493991271	0.38994193539477967	0.510399044977021	0.12659047723294567	0.42182035442530524	0.5334322633754511	0.11228460810962582	0.020748572541781723	0.4989881298806169	-0.4868531238861176	0.01675560539201049	0.4988224311462914	-0.2305241550374302	0.050951523728860686	0.49859356876002014	0.01774749262201674	0.10154882540155405	0.46611695355210536	0.1112543346076596	0.07722919426931095	0.5042952621535718	0.16107478941803766	0.034658082677120124	0.5063341239699911	0.13570979110366052
60	1.2765957446808511	0.3045861700210785	0.5519215777746141	-0.10816970185947669	0.35042136497193355	0.6414860858930203	0.3272711505352586	0.37433131304201434	0.7237984251760398	0.7152334629016708	0.3410501198956203	0.5553741156626806	0.761354495196467	0.4095740759158839	0.5615553770479564	0.751693868553529	0.3539550225185556	0.8121503141542318	0.7727649555612237	0.1055826721960996	0.5670488251338189	-0.08553124773144255	0.1291872910428496	0.6569044007004461	0.37133516465444644	0.15527810994156127	0.7062658641163095	0.740649952478047	0.18799666545120874	0.5251942806364092	0.7540486459465907	0.12953902994069652	0.5753540175662772	0.7734535350984253	0.17255798358723093	0.7500289286692988	0.7867814797190126	0.17509980138300207	0.5199205888695053	-0.5789729103969975	0.1583625992876505	0.4449713182995523	-0.8246001220988989	0.1665997087231853	0.3727527447420942	-0.6837179420760768	0.3206014341431893	0.5076217399324894	-0.5068438570532429	0.385324933195087	0.5590463697262669	-0.2395825842053187	0.4157936852314353	0.4851764870459621	-0.0033179980575790543	0.36763009860034523	0.48291189830174314	0.10164787017922793	0.3908285281574018	0.5063268658660113	0.1251613136889119	0.42203226637647817	0.5332724377335099	0.11228710316449485	0.020402071145996337	0.498984606107308	-0.48688081250995163	0.01710263468717219	0.49898341774269345	-0.23056543969728602	0.05078819870668937	0.49833428692979653	0.017850731326524365	0.10224722687533272	0.4699809717340316	0.11189056491752286	0.07795387428515092	0.5082826698193378	0.16072751085596015	0.035736674887690674	0.5116697807614584	0.1362404507898625
61	1.297872340425532	0.3045242897492434	0.5518820390930345	-0.10836456535105078	0.34973452543775496	0.6412094910181558	0.3257430818388681	0.37228397777966343	0.7229800653698334	0.7150935685792921	0.3409182432293552	0.5547859570513937	0.7612562864214963	0.4098802854596585	0.5614122985346665	0.7529071829361351	0.35130334183210576	0.8130301355951496	0.7726335809154659	0.10458290843365642	0.5669500984676156	-0.085623135322984	0.12907633057426204	0.6572586029939196	0.36867317546983885	0.15343854183544317	0.7070950020842646	0.7410255966343061	0.18812537239043306	0.5248579574145178	0.7555298974233683	0.12932617358586912	0.5756217609171509	0.7736085728014316	0.1713278437336161	0.7456931261891011	0.7849081020658086	0.1744718994020398	0.5200095889461918	-0.5788560277175032	0.15814506980117093	0.44559707694494444	-0.8244951244227374	0.16649693545144764	0.37282030632226426	-0.6836932451924169	0.32060697129010074	0.5076439157178284	-0.5068434810717666	0.38533828223750677	0.5590958686298831	-0.2396592650469852	0.41470216468332843	0.4899421211237873	-0.0020265734838394067	0.36765893270024014	0.48269368006798663	0.10168329051939584	0.392252573180914	0.500198627949657	0.12237327198939005	0.4222479119094907	0.5330493547005141	0.11227278962907457	0.019956093877047474	0.4951866326151416	-0.4869352151818559	0.0170478572245798	0.4989755254470952	-0.2305520034225842	0.05069491975648185	0.498339446181541	0.017940669504023943	0.10220876288516272	0.4709961399320165	0.11068123772056279	0.07789390659968878	0.5093935913026604	0.1605524599370887	0.03604296283276998	0.5145479713099087	0.1349677276557877
62	1.319148936170213	0.304551421409204	0.5517409369365851	-0.10824246515876572	0.34923839120509464	0.640834605365996	0.3252944183926453	0.3708878681799746	0.722422383036642	0.715065201841449	0.3411073742324948	0.5552016790469751	0.7612763047674056	0.40992497356995466	0.5611070234549442	0.7533026733467725	0.3472508984499469	0.8128998179522826	0.77249794795394	0.10419153267963044	0.5669302287729805	-0.0852872565093879	0.12787238279390023	0.657265354099021	0.36425576908003926	0.15319846868182885	0.70635672570227	0.7410656536521706	0.18819520044767724	0.5245543302338856	0.7555002649623417	0.12917109609459662	0.5759988205322247	0.7738668945197213	0.16994541239866656	0.7390154822289078	0.7823791609199721	0.17234826623429006	0.5196774341796242	-0.5785313750237531	0.1582572193401124	0.4452116304202092	-0.8246298015661102	0.16644850325478602	0.37291804052323263	-0.6836683444105341	0.3206040216724197	0.5076572221160446	-0.506846844237014	0.385299000512516	0.5592063689415708	-0.24046767607225716	0.414709937543564	0.4900282055542474	-0.002008482186698531	0.3677209104368007	0.48264338726103534	0.10168759611974666	0.3933059450386744	0.4959667752856821	0.119625713486918	0.42236804056929966	0.5331403869039504	0.11228291121459104	0.01942088095044244	0.4899161246820777	-0.487024023188192	0.016971813756979343	0.4989415941485915	-0.23052739589386306	0.05061218905780938	0.4984494794958193	0.01795647312789474	0.10182417389809233	0.4706162502755882	0.1085643461860272	0.0775610910700377	0.5093121711973405	0.16153975026918407	0.03569087490853484	0.5146151019489643	0.1344506227533776
